<svg xmlns="http://www.w3.org/2000/svg" version="1.1" xmlns:xlink="http://www.w3.org/1999/xlink" xmlns:svgjs="http://svgjs.dev/svgjs" width="250" height="250" viewBox="0 0 2000 2000"><g transform="matrix(1,0,0,1,-0.28443113772425477,-0.28443113772459583)"><svg viewBox="0 0 334 334" data-background-color="#ffbe79" preserveAspectRatio="xMidYMid meet" height="2000" width="2000" xmlns="http://www.w3.org/2000/svg" xmlns:xlink="http://www.w3.org/1999/xlink"><g id="tight-bounds" transform="matrix(1,0,0,1,0.04749999999998522,0.04750000000001364)"><svg viewBox="0 0 333.90454557049503 333.90454557049503" height="333.90454557049503" width="333.90454557049503"><g><svg></svg></g><g><svg viewBox="0 0 333.90454557049503 333.90454557049503" height="333.90454557049503" width="333.90454557049503"><g><path d="M0 166.952c0-92.205 74.747-166.952 166.952-166.952 92.205 0 166.952 74.747 166.953 166.952 0 92.205-74.747 166.952-166.953 166.953-92.205 0-166.952-74.747-166.952-166.953zM166.952 327.306c88.561 0 160.354-71.793 160.354-160.354 0-88.561-71.793-160.354-160.354-160.354-88.561 0-160.354 71.793-160.354 160.354 0 88.561 71.793 160.354 160.354 160.354z" data-fill-palette-color="tertiary" fill="#374151" stroke="transparent"></path><ellipse rx="160.27418187383762" ry="160.27418187383762" cx="166.95227278524752" cy="166.95227278524752" fill="#374151" stroke="transparent" stroke-width="0" fill-opacity="1" data-fill-palette-color="tertiary"></ellipse></g><g transform="matrix(1,0,0,1,106.61473336429758,71.17305217166896)"><svg viewBox="0 0 120.67507884189988 191.55844122715712" height="191.55844122715712" width="120.67507884189988"><g><svg viewBox="0 0 213.1584412271571 338.3656271679793" height="191.55844122715712" width="120.67507884189988"><g transform="matrix(1,0,0,1,0,209.12353214553562)"><svg viewBox="0 0 213.1584412271571 129.2420950224437" height="129.2420950224437" width="213.1584412271571"><g id="textblocktransform"><svg viewBox="0 0 213.1584412271571 129.2420950224437" height="129.2420950224437" width="213.1584412271571" id="textblock"><g><svg viewBox="0 0 213.1584412271571 129.2420950224437" height="129.2420950224437" width="213.1584412271571"><g transform="matrix(1,0,0,1,0,0)"><svg width="213.1584412271571" viewBox="2.0999999046325684 -34.900001525878906 58.55000305175781 35.5" height="129.2420950224437" data-palette-color="#ffbe79"><path d="M15.6 0.6Q2.1 0.6 2.1-17.15L2.1-17.15Q2.1-34.9 15.6-34.9L15.6-34.9Q21.05-34.9 24.3-31.58 27.55-28.25 27.55-21.9L27.55-21.9 23.05-21.9Q23.05-26.3 21.05-28.58 19.05-30.85 15.6-30.85L15.6-30.85Q11.1-30.85 8.9-27.75 6.7-24.65 6.7-18.4L6.7-18.4 6.7-15.9Q6.7-9.65 8.9-6.55 11.1-3.45 15.6-3.45L15.6-3.45Q19.15-3.45 21.18-5.7 23.2-7.95 23.2-12.3L23.2-12.3 27.55-12.3Q27.55-5.9 24.33-2.65 21.1 0.6 15.6 0.6L15.6 0.6ZM32.7 0L32.7-34.3 39.4-34.3 45.45-11.8Q46.05-9.4 46.6-4.1L46.6-4.1 46.8-4.1Q47.3-9.5 47.9-11.8L47.9-11.8 54-34.3 60.65-34.3 60.65 0 56.25 0 56.25-24.9Q56.25-26.05 56.6-30.2L56.6-30.2 56.4-30.2Q55.6-26.05 55.25-24.9L55.25-24.9 48.4 0 44.45 0 37.6-24.9Q37.35-25.8 36.55-30.2L36.55-30.2 36.35-30.2Q36.65-25.85 36.65-24.9L36.65-24.9 36.65 0 32.7 0Z" opacity="1" transform="matrix(1,0,0,1,0,0)" fill="#ffbe79" class="undefined-text-0" data-fill-palette-color="quaternary" id="text-0"></path></svg></g></svg></g></svg></g></svg></g><g transform="matrix(1,0,0,1,47.45583694199936,0)"><svg viewBox="0 0 118.2467673431584 178.6125753210172" height="178.6125753210172" width="118.2467673431584"><g><svg xmlns="http://www.w3.org/2000/svg" xmlns:xlink="http://www.w3.org/1999/xlink" version="1.1" x="0" y="0" viewBox="24.761856079101562 5 59.5826416015625 90" enable-background="new 0 0 100 100" xml:space="preserve" height="178.6125753210172" width="118.2467673431584" class="icon-icon-0" data-fill-palette-color="quaternary" id="icon-0"><g fill="#ffbe79" data-fill-palette-color="quaternary"><path d="M73.76 35.603C86.875 48 91.5 66.25 65.633 82.379c3.64-4.928 5.654-9.794 6.096-14.669 0.951-10.516-5.606-19.072-12.835-26.752C48.298 29.7 47.51 18.84 56.413 6.782 54.578 22.641 64.6 26.944 73.76 35.603zM45.288 93.716c6.184-13.053 7.276-20.302-8.197-34.939-4.204-3.977-7.451-8.029-9.71-12.086-2.881 6.435-5.164 20.081 3.244 27.935C36.312 79.938 44.125 83.125 45.288 93.716zM56.709 43.014C48.183 33.954 41.999 21.253 54 5 21.497 17.692 19.625 38.125 39.151 56.597 55.603 72.158 54.75 80.75 48 95 79.875 71.5 68.709 55.764 56.709 43.014z" fill="#ffbe79" data-fill-palette-color="quaternary"></path></g><g display="none" fill="#ffbe79" data-fill-palette-color="quaternary"><path display="inline" d="M54 5C16.75 17.5 14.875 56.5 26.75 70.762c10.558 12.68 15.407 7.949 19.675 20.824" fill="#ffbe79" data-fill-palette-color="quaternary"></path><line display="inline" x1="56.988" y1="5.261" x2="45.528" y2="136.262" fill="#ffbe79" data-fill-palette-color="quaternary"></line><line display="inline" x1="54.131" y1="3.502" x2="42.67" y2="134.502" fill="#ffbe79" data-fill-palette-color="quaternary"></line><path display="inline" d="M42.875 76" fill="#ffbe79" data-fill-palette-color="quaternary"></path></g></svg></g></svg></g><g></g></svg></g></svg></g></svg></g><defs></defs></svg><rect width="333.90454557049503" height="333.90454557049503" fill="none" stroke="none" visibility="hidden"></rect></g></svg></g></svg>